<?xml version="1.0" encoding="UTF-8"?>
<svg width="150px" height="150px" viewBox="0 0 150 150" version="1.1" xmlns="http://www.w3.org/2000/svg" xmlns:xlink="http://www.w3.org/1999/xlink">
    <!-- Generator: Sketch 46.2 (44496) - http://www.bohemiancoding.com/sketch -->
    <title>img_edit_hover</title>
    <desc>Created with Sketch.</desc>
    <defs></defs>
    <g id="Management" stroke="none" stroke-width="1" fill="none" fill-rule="evenodd">
        <g id="img_edit_hover">
            <circle id="Oval-2" fill-opacity="0.9" fill="#58B4C3" cx="75" cy="75" r="75"></circle>
            <path d="M93.384202,25 L42.8738721,75.5178025 L42.8689414,75.5128711 L25.0049307,93.3696617 L25,125 L56.6305902,125 L74.4896701,107.143209 L125,56.6254068 L93.384202,25 Z M86.5847345,45.746622 L93.384202,38.9461485 L111.055914,56.6254068 L104.261378,63.4209488 L86.5847345,45.746622 Z M49.8459149,82.4908768 L79.6126917,52.7147648 L84.9625265,58.075254 L55.2006804,87.8415031 L49.8459149,82.4908768 Z M62.1727232,94.8145774 L91.9395,65.0483282 L97.2844041,70.3940231 L67.5176273,100.160272 L62.1727232,94.8145774 Z M34.8663774,97.4529046 L42.8689414,89.4590196 L60.5455845,107.143209 L52.5479513,115.137094 L44.5700409,115.137094 L44.5700409,105.427064 L34.8614467,105.427064 L34.8663774,97.4529046 Z" id="Page-1" fill="#FFFFFF"></path>
        </g>
    </g>
</svg>