<?xml version="1.0" encoding="UTF-8"?>
<svg width="48px" height="48px" viewBox="0 0 48 48" version="1.1" xmlns="http://www.w3.org/2000/svg" xmlns:xlink="http://www.w3.org/1999/xlink" style="">
    <!-- Generator: Sketch 46.2 (44496) - http://www.bohemiancoding.com/sketch -->
    <title>btn_bell_normal</title>
    <desc>Created with Sketch.</desc>
    <defs></defs>
    <g id="Banner" stroke="none" stroke-width="1" fill="none" fill-rule="evenodd">
        <g id="btn_bell_normal">
            <rect id="Rectangle" fill-opacity="0" fill="#D8D8D8" x="0" y="0" width="48" height="48"></rect>
            <g id="icon_bell-copy" transform="translate(13.000000, 9.000000)">
                <polygon id="Stroke-54" fill="#002855" fill-rule="nonzero" points="12.5 3 12.5 0 10.5 0 10.5 3"></polygon>
                <path d="M23,24 L23,25 L0,25 L0,24 C0,21.1064568 1.08695555,18.3734674 3,16.2737352 L3,10.5 C3,5.81671525 6.81671525,2 11.5,2 C16.1832847,2 20,5.81671525 20,10.5 L20,16.2737352 C21.9130445,18.3734674 23,21.1064568 23,24 Z M18.2851947,17.3703235 L18,17.0788151 L18,10.5 C18,6.92128475 15.0787153,4 11.5,4 C7.92128475,4 5,6.92128475 5,10.5 L5,17.0788151 L4.7148053,17.3703235 C3.21831225,18.8999463 2.27822188,20.8724966 2.05274944,23 L20.9472506,23 C20.7217781,20.8724966 19.7816878,18.8999463 18.2851947,17.3703235 Z" id="Stroke-56" fill="#002855" fill-rule="nonzero"></path>
                <path d="M8.9187,24 C8.6597,24.443 8.4997,24.951 8.4997,25.5 C8.4997,27.152 9.8477,28.5 11.4997,28.5 C13.1527,28.5 14.4997,27.152 14.4997,25.5 C14.4997,24.951 14.3407,24.443 14.0807,24 L8.9187,24 Z" id="Fill-58" fill="#58B4C3"></path>
                <path d="M8.05541627,23.4952811 L8.3449824,23 L14.6533012,23 L14.9431343,23.4938309 C15.3032915,24.1074835 15.4997,24.789816 15.4997,25.5 C15.4997,27.7045783 13.7046913,29.5 11.4997,29.5 C9.29541525,29.5 7.4997,27.7042847 7.4997,25.5 C7.4997,24.7911473 7.69618994,24.1097107 8.05541627,23.4952811 Z M9.4997,25.5 C9.4997,26.5997153 10.3999847,27.5 11.4997,27.5 C12.6000188,27.5 13.4997,26.6001118 13.4997,25.5 C13.4997,25.3308824 13.4762951,25.1637318 13.430457,25 L9.56930772,25 C9.52323064,25.1641293 9.4997,25.3312825 9.4997,25.5 Z" id="Stroke-60" fill="#002855" fill-rule="nonzero"></path>
            </g>
        </g>
    </g>
</svg>