<?xml version="1.0" encoding="UTF-8"?>
<svg width="48px" height="48px" viewBox="0 0 48 48" version="1.1" xmlns="http://www.w3.org/2000/svg" xmlns:xlink="http://www.w3.org/1999/xlink" style="">
    <!-- Generator: Sketch 46.2 (44496) - http://www.bohemiancoding.com/sketch -->
    <title>btn_manage_normal</title>
    <desc>Created with Sketch.</desc>
    <defs></defs>
    <g id="Banner" stroke="none" stroke-width="1" fill="none" fill-rule="evenodd">
        <g id="btn_manage_normal">
            <g id="icon_manage-copy" transform="translate(10.000000, 11.000000)">
                <path d="M14,17.5 C16.477,17.5 18.5,15.479 18.5,13 C18.5,10.521 16.477,8.5 14,8.5 C11.522,8.5 9.5,10.521 9.5,13 C9.5,15.479 11.522,17.5 14,17.5" id="Fill-33" fill="#58B4C3"></path>
                <path d="M14,18.5 C10.9694045,18.5 8.5,16.0309741 8.5,13 C8.5,9.96902591 10.9694045,7.5 14,7.5 C17.0299062,7.5 19.5,9.96933646 19.5,13 C19.5,16.0306635 17.0299062,18.5 14,18.5 Z M14,16.5 C15.925474,16.5 17.5,14.9259567 17.5,13 C17.5,11.0740433 15.925474,9.5 14,9.5 C12.0739054,9.5 10.5,11.0736641 10.5,13 C10.5,14.9263359 12.0739054,16.5 14,16.5 Z" id="Stroke-35" fill="#002855" fill-rule="nonzero"></path>
                <path d="M27.9536165,9.04445822 L28.1140365,9.73327924 C28.3681041,10.8242097 28.5001,11.9129077 28.5001,13.0021 C28.5001,14.087612 28.3685811,15.172442 28.1152559,16.2649768 L27.9552814,16.9549108 L24.6430246,17.3223675 C24.2442172,18.300133 23.7127724,19.2162512 23.0638967,20.0485342 L24.3995092,23.0932779 L23.8816639,23.576926 C22.2609797,25.0905838 20.3356268,26.2183999 18.2362724,26.8621596 L17.5581993,27.0700884 L15.5835143,24.3874392 C15.0563339,24.4619997 14.5283589,24.5001 14.0001,24.5001 C13.4712599,24.5001 12.9435457,24.4620244 12.4159018,24.3874039 L10.4422424,27.0700578 L9.76406252,26.862201 C7.6642575,26.2186271 5.74074753,25.0920701 4.12055352,23.5789422 L3.60299475,23.0955849 L4.93655931,20.0508183 C4.28725085,19.2179094 3.75528101,18.3005221 3.35680759,17.3223477 L0.0432006119,16.9548554 L-0.116274419,16.2640322 C-0.36872921,15.1704338 -0.4999,14.086267 -0.4999,13.0021 C-0.4999,11.9130864 -0.367955657,10.8245456 -0.113887626,9.7324988 L0.0464676278,9.04325253 L3.357645,8.67580139 C3.75703481,7.69853037 4.28931947,6.78200539 4.93830635,5.94967282 L3.60269078,2.90492207 L4.12053614,2.42127405 C5.74122027,0.907616226 7.66657322,-0.220199864 9.76592764,-0.863959606 L10.4441323,-1.0719287 L12.4188714,1.611823 C12.9439618,1.53781346 13.4712446,1.5001 14.0001,1.5001 C14.5292712,1.5001 15.0573107,1.53785986 15.5832486,1.61193178 L17.5582727,-1.07220734 L18.2367123,-0.863824592 C20.3357322,-0.21911053 22.2601956,0.909645504 23.8791554,2.42373342 L24.3959955,2.90709401 L23.0628144,5.95098511 C23.7100699,6.7806618 24.2416578,7.69709519 24.6421254,8.6759429 L27.9536165,9.04445822 Z M26.5001,13.0021 C26.5001,12.2960452 26.4349085,11.5871347 26.3075219,10.8736205 L23.184602,10.5260901 L22.9780532,9.92903511 C22.5747955,8.76336819 21.9527458,7.69237882 21.147339,6.77139394 L20.7293906,6.29346879 L21.9881544,3.4194859 C20.8869913,2.49599643 19.6464274,1.76896162 18.3151046,1.27383382 L16.4535898,3.8037091 L15.831149,3.68130839 C15.2214089,3.56140523 14.6106188,3.5001 14.0001,3.5001 C13.3897727,3.5001 12.7800708,3.56136408 12.1713346,3.68125258 L11.5487303,3.80387236 L9.68687439,1.27353351 C8.35515448,1.76803076 7.11388018,2.49449266 6.01157729,3.41767038 L7.27177546,6.29049503 L6.85455145,6.76860354 C6.04559734,7.69560639 5.42278467,8.76655993 5.02252719,9.92793343 L4.81633863,10.5262032 L1.69274232,10.8728379 C1.56529411,11.5870174 1.5001,12.2960143 1.5001,13.0021 C1.5001,13.7048746 1.56492871,14.4111595 1.69171452,15.1254201 L4.81728324,15.4720582 L5.02297561,16.0715706 C5.4215616,17.233292 6.04350627,18.3046227 6.85250458,19.2315427 L7.26953411,19.7093596 L6.01125584,22.5822342 C7.1129584,23.5048995 8.35311215,24.2305634 9.68475101,24.7247531 L11.5454452,22.1956448 L12.1677683,22.317836 C12.782197,22.4384773 13.3916522,22.5001 14.0001,22.5001 C14.6080034,22.5001 15.2184454,22.4383775 15.831149,22.3178916 L16.4534639,22.1955157 L18.3151951,24.7247149 C19.6469644,24.2302167 20.8882838,23.5037375 21.9906227,22.5805296 L20.7304045,19.7076592 L21.1476954,19.2295427 C21.9565671,18.3027678 22.5777494,17.2332717 22.9774484,16.0709183 L23.1833893,15.4720275 L26.3080691,15.1253803 C26.4351468,14.4119037 26.5001,13.7055051 26.5001,13.0021 Z" id="Stroke-37" fill="#002855" fill-rule="nonzero"></path>
            </g>
            <rect id="Rectangle" fill-opacity="0" fill="#D8D8D8" x="0" y="0" width="48" height="48"></rect>
        </g>
    </g>
</svg>