<?xml version="1.0" encoding="UTF-8"?>
<svg width="48px" height="48px" viewBox="0 0 48 48" version="1.1" xmlns="http://www.w3.org/2000/svg" xmlns:xlink="http://www.w3.org/1999/xlink" style="background: #FFFFFF;">
    <!-- Generator: Sketch 46.2 (44496) - http://www.bohemiancoding.com/sketch -->
    <title>btn_manage_hover</title>
    <desc>Created with Sketch.</desc>
    <defs></defs>
    <g id="Banner" stroke="none" stroke-width="1" fill="none" fill-rule="evenodd">
        <g id="btn_manage_hover">
            <g id="icon_manage-copy">
                <circle id="Oval-Copy-3" fill="#98C2C9" cx="24" cy="24" r="24"></circle>
                <path d="M24,28.5 C26.477,28.5 28.5,26.479 28.5,24 C28.5,21.521 26.477,19.5 24,19.5 C21.522,19.5 19.5,21.521 19.5,24 C19.5,26.479 21.522,28.5 24,28.5" id="Fill-33" fill="#58B4C3"></path>
                <path d="M24,29.5 C20.9694045,29.5 18.5,27.0309741 18.5,24 C18.5,20.9690259 20.9694045,18.5 24,18.5 C27.0299062,18.5 29.5,20.9693365 29.5,24 C29.5,27.0306635 27.0299062,29.5 24,29.5 Z M24,27.5 C25.925474,27.5 27.5,25.9259567 27.5,24 C27.5,22.0740433 25.925474,20.5 24,20.5 C22.0739054,20.5 20.5,22.0736641 20.5,24 C20.5,25.9263359 22.0739054,27.5 24,27.5 Z" id="Stroke-35" fill="#002855" fill-rule="nonzero"></path>
                <path d="M37.9536165,20.0444582 L38.1140365,20.7332792 C38.3681041,21.8242097 38.5001,22.9129077 38.5001,24.0021 C38.5001,25.087612 38.3685811,26.172442 38.1152559,27.2649768 L37.9552814,27.9549108 L34.6430246,28.3223675 C34.2442172,29.300133 33.7127724,30.2162512 33.0638967,31.0485342 L34.3995092,34.0932779 L33.8816639,34.576926 C32.2609797,36.0905838 30.3356268,37.2183999 28.2362724,37.8621596 L27.5581993,38.0700884 L25.5835143,35.3874392 C25.0563339,35.4619997 24.5283589,35.5001 24.0001,35.5001 C23.4712599,35.5001 22.9435457,35.4620244 22.4159018,35.3874039 L20.4422424,38.0700578 L19.7640625,37.862201 C17.6642575,37.2186271 15.7407475,36.0920701 14.1205535,34.5789422 L13.6029948,34.0955849 L14.9365593,31.0508183 C14.2872509,30.2179094 13.755281,29.3005221 13.3568076,28.3223477 L10.0432006,27.9548554 L9.88372558,27.2640322 C9.63127079,26.1704338 9.5001,25.086267 9.5001,24.0021 C9.5001,22.9130864 9.63204434,21.8245456 9.88611237,20.7324988 L10.0464676,20.0432525 L13.357645,19.6758014 C13.7570348,18.6985304 14.2893195,17.7820054 14.9383063,16.9496728 L13.6026908,13.9049221 L14.1205361,13.421274 C15.7412203,11.9076162 17.6665732,10.7798001 19.7659276,10.1360404 L20.4441323,9.9280713 L22.4188714,12.611823 C22.9439618,12.5378135 23.4712446,12.5001 24.0001,12.5001 C24.5292712,12.5001 25.0573107,12.5378599 25.5832486,12.6119318 L27.5582727,9.92779266 L28.2367123,10.1361754 C30.3357322,10.7808895 32.2601956,11.9096455 33.8791554,13.4237334 L34.3959955,13.907094 L33.0628144,16.9509851 C33.7100699,17.7806618 34.2416578,18.6970952 34.6421254,19.6759429 L37.9536165,20.0444582 Z M32.2833338,34.2478116 L32.5165361,33.115274 C32.3450366,33.2754482 32.1696628,33.4305837 31.9906227,33.5805296 L32.2833338,34.2478116 Z M36.5001,24.0021 C36.5001,23.2960452 36.4349085,22.5871347 36.3075219,21.8736205 L33.184602,21.5260901 L32.9780532,20.9290351 C32.5747955,19.7633682 31.9527458,18.6923788 31.147339,17.7713939 L30.7293906,17.2934688 L31.9881544,14.4194859 C30.8869913,13.4959964 29.6464274,12.7689616 28.3151046,12.2738338 L26.4535898,14.8037091 L25.831149,14.6813084 C25.2214089,14.5614052 24.6106188,14.5001 24.0001,14.5001 C23.3897727,14.5001 22.7800708,14.5613641 22.1713346,14.6812526 L21.5487303,14.8038724 L19.6868744,12.2735335 C18.3551545,12.7680308 17.1138802,13.4944927 16.0115773,14.4176704 L17.2717755,17.290495 L16.8545515,17.7686035 C16.0455973,18.6956064 15.4227847,19.7665599 15.0225272,20.9279334 L14.8163386,21.5262032 L11.6927423,21.8728379 C11.5652941,22.5870174 11.5001,23.2960143 11.5001,24.0021 C11.5001,24.7048746 11.5649287,25.4111595 11.6917145,26.1254201 L14.8172832,26.4720582 L15.0229756,27.0715706 C15.4215616,28.233292 16.0435063,29.3046227 16.8525046,30.2315427 L17.2695341,30.7093596 L16.0112558,33.5822342 C17.1129584,34.5048995 18.3531122,35.2305634 19.684751,35.7247531 L21.5454452,33.1956448 L22.1677683,33.317836 C22.782197,33.4384773 23.3916522,33.5001 24.0001,33.5001 C24.6080034,33.5001 25.2184454,33.4383775 25.831149,33.3178916 L26.4534639,33.1955157 L28.3151951,35.7247149 C29.6469644,35.2302167 30.8882838,34.5037375 31.9906227,33.5805296 L30.7304045,30.7076592 L31.1476954,30.2295427 C31.9565671,29.3027678 32.5777494,28.2332717 32.9774484,27.0709183 L33.1833893,26.4720275 L36.3080691,26.1253803 C36.4351468,25.4119037 36.5001,24.7055051 36.5001,24.0021 Z" id="Stroke-37" fill="#002855" fill-rule="nonzero"></path>
            </g>
            <rect id="Rectangle" fill-opacity="0" fill="#D8D8D8" x="0" y="0" width="48" height="48"></rect>
        </g>
    </g>
</svg>