<?xml version="1.0" encoding="UTF-8"?>
<svg width="48px" height="48px" viewBox="0 0 48 48" version="1.1" xmlns="http://www.w3.org/2000/svg" xmlns:xlink="http://www.w3.org/1999/xlink" style="background: #FFFFFF;">
    <!-- Generator: Sketch 46.2 (44496) - http://www.bohemiancoding.com/sketch -->
    <title>btn_personnel_normal</title>
    <desc>Created with Sketch.</desc>
    <defs></defs>
    <g id="Banner" stroke="none" stroke-width="1" fill="none" fill-rule="evenodd">
        <g id="btn_personnel_normal">
            <g id="icon_add-staff-copy" transform="translate(11.000000, 10.000000)">
                <path d="M12,12.5 C15.305,12.5 18,9.805 18,6.5 C18,3.195 15.305,0.5 12,0.5 C8.695,0.5 6,3.195 6,6.5 C6,9.805 8.695,12.5 12,12.5" id="Fill-40" fill="#58B4C3"></path>
                <path d="M12,13.5 C8.14271525,13.5 5,10.3572847 5,6.5 C5,2.64271525 8.14271525,-0.5 12,-0.5 C15.8572847,-0.5 19,2.64271525 19,6.5 C19,10.3572847 15.8572847,13.5 12,13.5 Z M12,11.5 C14.7527153,11.5 17,9.25271525 17,6.5 C17,3.74728475 14.7527153,1.5 12,1.5 C9.24728475,1.5 7,3.74728475 7,6.5 C7,9.25271525 9.24728475,11.5 12,11.5 Z" id="Stroke-42" fill="#002855" fill-rule="nonzero"></path>
                <path d="M1,24.4998 C1,18.4430847 5.94328475,13.4998 12,13.4998 C14.2327527,13.4998 16.3705638,14.1744767 18.185639,15.4153281 L19.314361,13.7642719 C17.17008,12.2983634 14.6397159,11.4998 12,11.4998 C4.83871525,11.4998 -1,17.3385153 -1,24.4998 L-1,28.4998 L13.5,28.4998 L13.5,26.4998 L1,26.4998 L1,24.4998 Z" id="Stroke-44" fill="#002855" fill-rule="nonzero"></path>
                <polygon id="Stroke-48" fill="#002855" fill-rule="nonzero" points="13.5 24 25.5 24 25.5 22 13.5 22"></polygon>
                <polygon id="Stroke-52" fill="#002855" fill-rule="nonzero" points="20.5 29 20.5 17 18.5 17 18.5 29"></polygon>
            </g>
            <rect id="Rectangle" fill-opacity="0" fill="#D8D8D8" x="0" y="0" width="48" height="48"></rect>
        </g>
    </g>
</svg>