<?xml version="1.0" encoding="UTF-8"?>
<svg width="48px" height="48px" viewBox="0 0 48 48" version="1.1" xmlns="http://www.w3.org/2000/svg" xmlns:xlink="http://www.w3.org/1999/xlink" style="background: #FFFFFF;">
    <!-- Generator: Sketch 46.2 (44496) - http://www.bohemiancoding.com/sketch -->
    <title>btn_bell(red)_hover</title>
    <desc>Created with Sketch.</desc>
    <defs></defs>
    <g id="Banner" stroke="none" stroke-width="1" fill="none" fill-rule="evenodd">
        <g id="btn_bell(red)_hover">
            <circle id="Oval-Copy-2" fill="#98C2C9" cx="24" cy="24" r="24"></circle>
            <g id="icon_bell-copy" transform="translate(11.000000, 10.000000)">
                <polygon id="Stroke-54" fill="#002855" fill-rule="nonzero" points="11.5 3 11.5 0 9.5 0 9.5 3"></polygon>
                <path d="M22,24 L22,25 L-1,25 L-1,24 C-1,21.1064568 0.0869555453,18.3734674 2,16.2737352 L2,10.5 C2,5.81671525 5.81671525,2 10.5,2 C15.1832847,2 19,5.81671525 19,10.5 L19,16.2737352 C20.9130445,18.3734674 22,21.1064568 22,24 Z M17.2851947,17.3703235 L17,17.0788151 L17,10.5 C17,6.92128475 14.0787153,4 10.5,4 C6.92128475,4 4,6.92128475 4,10.5 L4,17.0788151 L3.7148053,17.3703235 C2.21831225,18.8999463 1.27822188,20.8724966 1.05274944,23 L19.9472506,23 C19.7217781,20.8724966 18.7816878,18.8999463 17.2851947,17.3703235 Z" id="Stroke-56" fill="#002855" fill-rule="nonzero"></path>
                <path d="M7.9187,24 C7.6597,24.443 7.4997,24.951 7.4997,25.5 C7.4997,27.152 8.8477,28.5 10.4997,28.5 C12.1527,28.5 13.4997,27.152 13.4997,25.5 C13.4997,24.951 13.3407,24.443 13.0807,24 L7.9187,24 Z" id="Fill-58" fill="#58B4C3"></path>
                <path d="M7.05541627,23.4952811 L7.3449824,23 L13.6533012,23 L13.9431343,23.4938309 C14.3032915,24.1074835 14.4997,24.789816 14.4997,25.5 C14.4997,27.7045783 12.7046913,29.5 10.4997,29.5 C8.29541525,29.5 6.4997,27.7042847 6.4997,25.5 C6.4997,24.7911473 6.69618994,24.1097107 7.05541627,23.4952811 Z M8.4997,25.5 C8.4997,26.5997153 9.39998475,27.5 10.4997,27.5 C11.6000188,27.5 12.4997,26.6001118 12.4997,25.5 C12.4997,25.3308824 12.4762951,25.1637318 12.430457,25 L8.56930772,25 C8.52323064,25.1641293 8.4997,25.3312825 8.4997,25.5 Z" id="Stroke-60" fill="#002855" fill-rule="nonzero"></path>
                <path d="M19.5,13.5 C22.805,13.5 25.5,10.805 25.5,7.5 C25.5,4.195 22.805,1.5 19.5,1.5 C16.195,1.5 13.5,4.195 13.5,7.5 C13.5,10.805 16.195,13.5 19.5,13.5" id="Fill-62" fill="#DF4543"></path>
                <path d="M19.5,14.5 C15.6427153,14.5 12.5,11.3572847 12.5,7.5 C12.5,3.64271525 15.6427153,0.5 19.5,0.5 C23.3572847,0.5 26.5,3.64271525 26.5,7.5 C26.5,11.3572847 23.3572847,14.5 19.5,14.5 Z M19.5,12.5 C22.2527153,12.5 24.5,10.2527153 24.5,7.5 C24.5,4.74728475 22.2527153,2.5 19.5,2.5 C16.7472847,2.5 14.5,4.74728475 14.5,7.5 C14.5,10.2527153 16.7472847,12.5 19.5,12.5 Z" id="Stroke-64" fill="#DF4543" fill-rule="nonzero"></path>
            </g>
            <rect id="Rectangle" fill-opacity="0" fill="#D8D8D8" x="0" y="0" width="48" height="48"></rect>
        </g>
    </g>
</svg>