<?xml version="1.0" encoding="UTF-8"?>
<svg width="32px" height="32px" viewBox="0 0 32 32" version="1.1" xmlns="http://www.w3.org/2000/svg" xmlns:xlink="http://www.w3.org/1999/xlink">
    <!-- Generator: Sketch 46.2 (44496) - http://www.bohemiancoding.com/sketch -->
    <title>btn_form_d_32</title>
    <desc>Created with Sketch.</desc>
    <defs></defs>
    <g id="LED-Viewer" stroke="none" stroke-width="1" fill="none" fill-rule="evenodd">
        <g id="btn_form_d_32" fill="#969696">
            <g id="btn_form_disable_32" transform="translate(6.000000, 6.000000)">
                <path d="M2,18 L18,18 L18,2 L2,2 L2,18 Z M0,20 L20,20 L20,0 L0,0 L0,20 Z" id="Fill-38"></path>
                <polygon id="Fill-40" points="5 7 7 7 7 5 5 5"></polygon>
                <polygon id="Fill-41" points="5 11.001 7 11.001 7 9.001 5 9.001"></polygon>
                <polygon id="Fill-42" points="5 15 7 15 7 13 5 13"></polygon>
                <polygon id="Fill-43" points="9 7 15 7 15 5 9 5"></polygon>
                <polygon id="Fill-44" points="9 11.001 15 11.001 15 9.001 9 9.001"></polygon>
                <polygon id="Fill-45" points="9 15 15 15 15 13 9 13"></polygon>
            </g>
        </g>
    </g>
</svg>