<?xml version="1.0" encoding="UTF-8"?>
<svg width="48px" height="48px" viewBox="0 0 48 48" version="1.1" xmlns="http://www.w3.org/2000/svg" xmlns:xlink="http://www.w3.org/1999/xlink" style="background: #FFFFFF;">
    <!-- Generator: Sketch 46.2 (44496) - http://www.bohemiancoding.com/sketch -->
    <title>btn_account_hover</title>
    <desc>Created with Sketch.</desc>
    <defs></defs>
    <g id="Banner" stroke="none" stroke-width="1" fill="none" fill-rule="evenodd">
        <g id="btn_account_hover">
            <circle id="Oval" fill="#98C2C9" cx="24" cy="24" r="24"></circle>
            <g id="icon_account-copy" transform="translate(10.000000, 10.000000)">
                <path d="M14,28.5 C6.01171525,28.5 -0.5,21.9882847 -0.5,14 C-0.5,6.01171525 6.01171525,-0.5 14,-0.5 C21.9882847,-0.5 28.5,6.01171525 28.5,14 C28.5,21.9882847 21.9882847,28.5 14,28.5 Z M14,26.5 C20.8837153,26.5 26.5,20.8837153 26.5,14 C26.5,7.11628475 20.8837153,1.5 14,1.5 C7.11628475,1.5 1.5,7.11628475 1.5,14 C1.5,20.8837153 7.11628475,26.5 14,26.5 Z" id="Stroke-67" fill="#002855" fill-rule="nonzero"></path>
                <path d="M14,18.5 C10.021,18.5 6.447,20.246 3.972,23 C6.447,25.753 10.021,27.5 14,27.5 C17.978,27.5 21.553,25.753 24.028,23 C21.553,20.246 17.978,18.5 14,18.5" id="Fill-69" fill="#58B4C3"></path>
                <path d="M14,17.5 C18.152087,17.5 22.0298067,19.280507 24.7717774,22.3315726 L25.3725974,23.0001214 L24.7716567,23.6685617 C22.0291023,26.7191687 18.1512971,28.5 14,28.5 C9.8480524,28.5 5.97115467,26.7194545 3.22834331,23.6685617 L2.62740262,23.0001214 L3.2282226,22.3315726 C5.97045,19.2802214 9.84726257,17.5 14,17.5 Z M14,19.5 C10.7371902,19.5 7.67232914,20.7757827 5.36173834,22.9998892 C7.67286603,25.2239063 10.7378802,26.5 14,26.5 C17.2615137,26.5 20.3271972,25.2236818 22.6382392,22.9998892 C20.3277339,20.7760071 17.2622037,19.5 14,19.5 Z" id="Stroke-71" fill="#002855" fill-rule="nonzero"></path>
                <path d="M14,18.5 C16.478,18.5 18.5,16.479 18.5,14 C18.5,11.521 16.478,9.5 14,9.5 C11.521,9.5 9.5,11.521 9.5,14 C9.5,16.479 11.521,18.5 14,18.5" id="Fill-73" fill="#58B4C3"></path>
                <path d="M14,19.5 C10.9687153,19.5 8.5,17.0312847 8.5,14 C8.5,10.9687153 10.9687153,8.5 14,8.5 C17.0305955,8.5 19.5,10.9690259 19.5,14 C19.5,17.0309741 17.0305955,19.5 14,19.5 Z M14,17.5 C15.9260946,17.5 17.5,15.9263359 17.5,14 C17.5,12.0736641 15.9260946,10.5 14,10.5 C12.0732847,10.5 10.5,12.0732847 10.5,14 C10.5,15.9267153 12.0732847,17.5 14,17.5 Z" id="Stroke-75" fill="#002855" fill-rule="nonzero"></path>
            </g>
            <rect id="Rectangle" fill-opacity="0" fill="#D8D8D8" x="0" y="0" width="48" height="48"></rect>
        </g>
    </g>
</svg>