<?xml version="1.0" encoding="UTF-8"?>
<svg width="32px" height="32px" viewBox="0 0 32 32" version="1.1" xmlns="http://www.w3.org/2000/svg" xmlns:xlink="http://www.w3.org/1999/xlink">
    <!-- Generator: Sketch 46.2 (44496) - http://www.bohemiancoding.com/sketch -->
    <title>btn_delete_d_32</title>
    <desc>Created with Sketch.</desc>
    <defs></defs>
    <g id="Management" stroke="none" stroke-width="1" fill="none" fill-rule="evenodd">
        <g id="btn_delete_d_32" fill="#969696">
            <g id="btn_deleted_d_32" transform="translate(6.000000, 4.000000)">
                <path d="M5.9211,-0.0003 L4.7991,3.0007 L0.0001,3.0007 L0.0001,8.9997 L1.3981,8.9997 L2.4911,23.9997 L17.5101,23.9997 L18.6021,8.9997 L20.0001,8.9997 L20.0001,3.0007 L15.2021,3.0007 L14.0801,-0.0003 L5.9211,-0.0003 Z M7.3981,2.0007 L12.6031,2.0007 L12.9691,3.0007 L7.0321,3.0007 L7.3981,2.0007 Z M2.0001,6.9997 L18.0001,6.9997 L18.0001,4.9997 L2.0001,4.9997 L2.0001,6.9997 Z M3.5741,8.9997 L16.4261,8.9997 L15.4981,22.0007 L4.5021,22.0007 L3.5741,8.9997 Z" id="Fill-1"></path>
                <polygon id="Fill-2" points="11 20 13 20 13 11 11 11"></polygon>
                <polygon id="Fill-3" points="7 20 9 20 9 11 7 11"></polygon>
            </g>
        </g>
    </g>
</svg>