<?xml version="1.0" encoding="UTF-8"?>
<svg width="125px" height="32px" viewBox="0 0 125 32" version="1.1" xmlns="http://www.w3.org/2000/svg" xmlns:xlink="http://www.w3.org/1999/xlink">
    <!-- Generator: Sketch 46.2 (44496) - http://www.bohemiancoding.com/sketch -->
    <title>image_banner_logo</title>
    <desc>Created with Sketch.</desc>
    <defs></defs>
    <g id="Banner" stroke="none" stroke-width="1" fill="none" fill-rule="evenodd">
        <g id="image_banner_logo">
            <g id="Page-1" transform="translate(3.000000, 4.000000)">
                <polygon id="Fill-1" fill="#004280" points="0 24 119 24 119 0 0 0"></polygon>
                <g id="Group-20" transform="translate(12.000000, 4.000000)" fill="#FEFEFE">
                    <path d="M18.3022833,12.8664432 L18.3022833,5.48244324 C21.0901352,5.33714595 22.3414801,7.23033514 22.3414801,9.38947027 C22.3414801,11.4560649 21.031531,13.0359568 18.3022833,12.8664432 L18.3022833,12.8664432 Z M15.4362926,3.09736216 L15.4362926,15.3708757 L18.2135912,15.3708757 C22.589369,15.3708757 25.1883852,12.7583351 25.1883852,9.33974054 C25.1883852,5.91660541 22.8006583,3.09736216 17.6585356,3.09736216 L15.4362926,3.09736216 Z" id="Fill-2"></path>
                    <polygon id="Fill-4" points="54.1584905 3.09734054 51.2853146 3.09734054 51.2853146 9.90923243 43.4453794 2.88717838 43.4453794 15.3710703 46.3136155 15.3710703 46.3136155 8.96977297 54.1584905 15.8700973"></polygon>
                    <polygon id="Fill-6" points="55.3812743 5.47993514 58.880235 5.47993514 58.880235 15.3709622 61.9615567 15.3709622 61.9615567 5.47993514 65.4194271 5.47993514 65.4194271 3.09723243 55.3812743 3.09723243"></polygon>
                    <polygon id="Fill-8" points="66.5458396 15.3709838 66.5458396 3.09725405 74.0599715 3.09725405 74.0599715 5.42655135 69.4360803 5.42655135 69.4360803 8.04147027 73.5980988 8.04147027 73.5980988 10.4047135 69.4360803 10.4047135 69.4360803 13.0183351 74.0599715 13.0183351 74.0599715 15.3709838"></polygon>
                    <polygon id="Fill-10" points="94.032788 3.09734054 94.032788 8.05798919 89.107119 8.05798919 89.107119 3.09734054 86.2314731 3.09734054 86.2314731 15.3710703 89.107119 15.3710703 89.107119 10.4045838 94.032788 10.4045838 94.032788 15.3710703 96.9055148 15.3710703 96.9055148 3.09734054"></polygon>
                    <polygon id="Fill-12" points="23.8015771 3.09734054 30.3261743 15.7072865 31.8970354 12.5066378 27.1386465 3.09734054"></polygon>
                    <polygon id="Fill-14" points="36.7954681 2.67323243 35.2145028 5.8580973 36.5585815 9.13571892 33.5798731 9.13571892 32.5779889 11.1644757 37.3785907 11.1644757 39.1906046 15.3709622 42.5252042 15.3709622"></polygon>
                    <path d="M74.6763257,9.25874595 C74.6763257,13.2831784 77.8254576,15.5205838 81.7092748,15.5205838 C83.2421891,15.5205838 84.0895919,15.0970162 84.7259299,14.781773 L84.7259299,11.8719351 C84.1367447,12.6248 82.9577007,13.1272865 81.7656336,13.1272865 C79.440328,13.1272865 77.5946336,11.613773 77.5946336,9.18393514 C77.5946336,6.77852973 79.6410641,5.33507027 81.7656336,5.33507027 C82.9577007,5.33507027 84.1367447,5.83755676 84.7259299,6.59128649 L84.7259299,3.89355676 C84.1823257,3.43301622 83.2040178,3.03734054 81.6749206,3.03734054 C77.7946961,3.03734054 74.6763257,5.68901622 74.6763257,9.25874595" id="Fill-16"></path>
                    <path d="M14.7411708,15.3709838 L7.43855278,0.0395243243 L0.0672263889,15.3709838 L3.67531204,15.3709838 L4.71581667,12.8055784 L9.94281435,12.8055784 L10.9905042,15.3709838 L14.7411708,15.3709838 Z M5.50034907,10.5603892 L7.3325713,6.22438919 L9.16411991,10.5603892 L5.50034907,10.5603892 Z" id="Fill-18"></path>
                </g>
            </g>
        </g>
    </g>
</svg>