<?xml version="1.0" encoding="UTF-8"?>
<svg width="250px" height="64px" viewBox="0 0 250 64" version="1.1" xmlns="http://www.w3.org/2000/svg" xmlns:xlink="http://www.w3.org/1999/xlink">
    <!-- Generator: Sketch 46.2 (44496) - http://www.bohemiancoding.com/sketch -->
    <title>img_logo</title>
    <desc>Created with Sketch.</desc>
    <defs></defs>
    <g id="Log-in" stroke="none" stroke-width="1" fill="none" fill-rule="evenodd">
        <g id="img_logo" fill-rule="nonzero">
            <g id="LOGO" transform="translate(5.000000, 7.000000)">
                <g id="_Group_2">
                    <rect id="_Path_" fill="#004280" x="0.97" y="0.77" width="238.06" height="48.45"></rect>
                    <g id="_Group_3" transform="translate(24.000000, 10.000000)" fill="#FFFFFF">
                        <path d="M30.65,6.65 L30.65,32.1 L36.19,32.1 C44.93,32.1 50.12,26.68 50.12,19.59 C50.12,12.5 45.35,6.65 35.12,6.65 L30.65,6.65 Z M36.37,26.9 L36.37,11.59 C41.94,11.29 44.43,15.21 44.43,19.69 C44.44,24 41.82,27.25 36.38,26.9 L36.37,26.9 Z" id="_Compound_Path_"></path>
                        <polygon id="_Path_2" points="107.96 6.65 102.23 6.65 102.23 20.77 86.58 6.21 86.58 32.09 92.3 32.09 92.3 18.82 107.96 33.13"></polygon>
                        <polygon id="_Path_3" points="110.41 11.59 117.39 11.59 117.39 32.09 123.54 32.09 123.54 11.59 130.45 11.59 130.45 6.65 110.41 6.65"></polygon>
                        <polygon id="_Path_4" points="132.7 32.09 132.7 6.65 147.7 6.65 147.7 11.48 138.47 11.48 138.47 16.9 146.78 16.9 146.78 21.8 138.47 21.8 138.47 27.22 147.7 27.22 147.7 32.09"></polygon>
                        <polygon id="_Path_5" points="187.58 6.65 187.58 16.93 177.74 16.93 177.74 6.65 172 6.65 172 32.09 177.74 32.09 177.74 21.8 187.58 21.8 187.58 32.09 193.31 32.09 193.31 6.65"></polygon>
                        <polygon id="_Path_6" points="47.36 6.65 60.38 32.79 63.52 26.16 54.02 6.65"></polygon>
                        <polygon id="_Path_7" points="73.3 5.77 70.14 12.37 72.83 19.17 66.88 19.17 64.88 23.37 74.46 23.37 78.08 32.09 84.74 32.09"></polygon>
                        <path d="M148.93,19.42 C148.93,27.76 155.22,32.42 162.93,32.42 C165.030766,32.4551417 167.102586,31.9268277 168.93,30.89 L168.93,24.89 C167.444358,26.5919963 165.278521,27.5448182 163.02,27.49 C158.38,27.49 154.69,24.35 154.69,19.31 C154.69,14.27 158.78,11.31 163.02,11.31 C165.278521,11.2551818 167.444358,12.2080037 168.93,13.91 L168.93,8.3 C167.84,7.3 165.93,6.52 162.84,6.52 C155.16,6.52 148.93,12 148.93,19.42 Z" id="_Path_8"></path>
                        <path d="M10.82,22.12 L14.48,13.12 L18.14,22.12 L10.82,22.12 Z M29.27,32.12 L14.69,0.31 L0,32.09 L7.2,32.09 L9.28,26.77 L19.72,26.77 L21.81,32.09 L29.27,32.12 Z" id="_Compound_Path_2"></path>
                    </g>
                </g>
            </g>
        </g>
    </g>
</svg>