<?xml version="1.0" encoding="utf-8"?>
<!-- Generator: Adobe Illustrator 21.1.0, SVG Export Plug-In . SVG Version: 6.00 Build 0)  -->
<svg version="1.1" id="Layer_1" xmlns="http://www.w3.org/2000/svg" xmlns:xlink="http://www.w3.org/1999/xlink" x="0px" y="0px"
	 viewBox="0 0 1366 768" style="enable-background:new 0 0 1366 768;" xml:space="preserve">
<style type="text/css">
	.st0{fill:url(#Rectangle_1_);}
	.st1{fill:#FFFFFF;fill-opacity:0.3;}
</style>
<title>img_bg</title>
<desc>Created with Sketch.</desc>
<linearGradient id="Rectangle_1_" gradientUnits="userSpaceOnUse" x1="0.5" y1="766.9883" x2="0.5" y2="767.9883" gradientTransform="matrix(1366 0 0 -768 0 589815)">
	<stop  offset="0" style="stop-color:#FFFFFF"/>
	<stop  offset="0.5761" style="stop-color:#ABDAE3"/>
	<stop  offset="1" style="stop-color:#58B4C3"/>
</linearGradient>
<rect id="Rectangle" x="0" y="0" class="st0" width="1366" height="768"/>
<path id="Combined-Shape-Copy-6" class="st1" d="M204.9,603.9H168v23.2h36.9V664h23.2v-36.9H265v-23.2h-36.9V567h-23.2V603.9z"/>
<path id="Combined-Shape-Copy-7" class="st1" d="M222,475h-26v17h26v26h17v-26h26v-17h-26v-26h-17V475z"/>
<path id="Combined-Shape-Copy-8" class="st1" d="M27,641H1v17h26v26h17v-26h26v-17H44v-26H27V641z"/>
<path id="Combined-Shape-Copy-4" class="st1" d="M1231.5,180.5H1209v15h22.5V218h15v-22.5h22.5v-15h-22.5V158h-15V180.5z"/>
<path id="Fill-1" class="st1" d="M111.5,537.2c-9.7,0-17.6-7.9-17.6-17.6c0-9.7,7.9-17.6,17.6-17.6c9.7,0,17.6,7.9,17.6,17.6
	C129.1,529.3,121.2,537.2,111.5,537.2 M111.5,478.2c-22.4,0-40.5,18.1-40.5,40.5c0,41.6,40.5,87.3,40.5,87.3s40.6-51.9,40.5-87.3
	C152,496.4,133.8,478.2,111.5,478.2"/>
<path id="Fill-1-Copy-3" class="st1" d="M1105.5,154.6c-9,0-16.3-7.3-16.3-16.3c0-9,7.3-16.3,16.3-16.3c9,0,16.3,7.3,16.3,16.3
	C1121.8,147.3,1114.5,154.6,1105.5,154.6 M1105.5,100c-20.7,0-37.5,16.8-37.5,37.5c0,38.5,37.5,80.8,37.5,80.8s37.5-48,37.5-80.8
	C1143,116.8,1126.2,100,1105.5,100"/>
<path id="Fill-1-Copy-4" class="st1" d="M1264.6,322c-10.9,0-19.7-8.8-19.7-19.7c0-10.9,8.8-19.7,19.7-19.7
	c10.9,0,19.7,8.8,19.7,19.7C1284.4,313.2,1275.5,322,1264.6,322 M1264.6,256c-25,0-45.3,20.3-45.3,45.3c0,46.6,45.3,97.7,45.3,97.7
	s45.4-58.1,45.3-97.7C1310,276.3,1289.7,256,1264.6,256"/>
<path id="Fill-1-Copy" class="st1" d="M328.4,662.4c-6.3,0-11.5-5.1-11.5-11.5c0-6.3,5.1-11.5,11.5-11.5c6.3,0,11.5,5.1,11.5,11.5
	C339.9,657.3,334.7,662.4,328.4,662.4 M328.4,624c-14.6,0-26.4,11.8-26.4,26.4c0,27.1,26.4,56.9,26.4,56.9s26.4-33.8,26.4-56.9
	C354.8,635.8,343,624,328.4,624"/>
<polygon class="st1" points="1034,0 1012,0 1012,10 978,10 978,32 1012,32 1012,66 1034,66 1034,32 1068,32 1068,10 1034,10 "/>
<polygon class="st1" points="1222.5,0 1194.5,0 1194.5,30.5 1152,30.5 1152,58.5 1194.5,58.5 1194.5,101 1222.5,101 1222.5,58.5 
	1265,58.5 1265,30.5 1222.5,30.5 "/>
<polygon class="st1" points="1366,95.5 1346.5,95.5 1346.5,57 1321.5,57 1321.5,95.5 1283,95.5 1283,120.5 1321.5,120.5 1321.5,159 
	1346.5,159 1346.5,120.5 1366,120.5 "/>
<polygon class="st1" points="33,440 33,414 16,414 16,440 0,440 0,457 16,457 16,483 33,483 33,457 59,457 59,440 "/>
<path class="st1" d="M193.1,768c5-10.8,8.7-22.2,8.7-32c0-18.8-15.2-34-34-34c-18.8,0-34,15.2-34,34c0,10.8,3.2,21.8,7.7,32H193.1z
	 M167.8,721.9c8.2,0,14.8,6.6,14.8,14.8c0,8.2-6.6,14.8-14.8,14.8c-8.2,0-14.8-6.6-14.8-14.8C153,728.5,159.6,721.9,167.8,721.9z"/>
</svg>
