<?xml version="1.0" encoding="UTF-8"?>
<svg width="32px" height="32px" viewBox="0 0 32 32" version="1.1" xmlns="http://www.w3.org/2000/svg" xmlns:xlink="http://www.w3.org/1999/xlink">
    <!-- Generator: Sketch 46.2 (44496) - http://www.bohemiancoding.com/sketch -->
    <title>btn_search_n_32</title>
    <desc>Created with Sketch.</desc>
    <defs></defs>
    <g id="Personnel" stroke="none" stroke-width="1" fill="none" fill-rule="evenodd">
        <g id="btn_search_n_32" fill-rule="nonzero" fill="#58B4C3">
            <g transform="translate(6.000000, 5.000000)" id="Shape">
                <path d="M8.09,15 C4.7762915,15 2.09,12.3137085 2.09,9 C2.09,5.6862915 4.7762915,3 8.09,3 C11.4037085,3 14.09,5.6862915 14.09,9 C14.09,12.3137085 11.4037085,15 8.09,15 Z M20.09,19.59 L14.4,13.9 C16.9914945,10.5639675 16.5425999,5.78796777 13.3748775,2.99324212 C10.2071551,0.198516475 5.4124464,0.348342883 2.42539464,3.33539464 C-0.561657117,6.3224464 -0.711483525,11.1171551 2.08324212,14.2848775 C4.87796777,17.4525999 9.65396751,17.9014945 12.99,15.31 L18.68,21 L20.09,19.59 Z"></path>
            </g>
        </g>
    </g>
</svg>